# xmcd CD database file
#
# Track frame offsets:
#	150
#	21661
#	43582
#	73355
#	89346
#	100930
#	115274
#	138321
#	168586
#	191583
#
# Disc length: 3097 seconds
#
# Revision: 0
# Processed by: cddbd v1.5PL3 Copyright (c) Steve Scherf et al.
# Submitted via: CDex 1.51
#
DISCID=920c170a
DTITLE=Cooper Moore Assif Tsahar - America
DYEAR=2003
DGENRE=Jazz
TTITLE0=america
TTITLE1=back porch chill
TTITLE2=tuscarora's cry
TTITLE3=12th avenue messengers
TTITLE4=lament for trees
TTITLE5=the tortoise and the buzzard
TTITLE6=no cracklin no bread
TTITLE7=lament for trees
TTITLE8=beyonf the years
TTITLE9=wounded knee
EXTD=YEAR: 2003
EXTT0=
EXTT1=
EXTT2=
EXTT3=
EXTT4=
EXTT5=
EXTT6=
EXTT7=
EXTT8=
EXTT9=
PLAYORDER=
